<svg width="12" height="12" viewBox="0 0 12 12" fill="none" xmlns="http://www.w3.org/2000/svg">
<path d="M0.769965 1.60785C0.770144 1.33366 0.884108 1.07075 1.08683 0.876872C1.28954 0.682991 1.56444 0.573995 1.85112 0.573824L10.5208 0.573825C10.8074 0.573995 11.0823 0.682991 11.285 0.876872C11.4878 1.07075 11.6017 1.33366 11.6019 1.60785L11.6019 9.89958C11.5919 10.1675 11.4736 10.4213 11.272 10.6076C11.0704 10.7939 10.8011 10.8981 10.5208 10.8985C10.2404 10.8981 9.97115 10.7939 9.76953 10.6076C9.56791 10.4213 9.44965 10.1675 9.4396 9.89958L9.4396 4.10512L1.85112 11.3628C1.64824 11.5569 1.37307 11.6659 1.08615 11.6659C0.799234 11.6659 0.524067 11.5569 0.321185 11.3628C0.118303 11.1688 0.00432569 10.9056 0.00432603 10.6312C0.00432603 10.3568 0.118303 10.0936 0.321185 9.89958L7.90966 2.64188L1.85112 2.64188C1.56443 2.64171 1.28954 2.53271 1.08682 2.33883C0.884108 2.14495 0.770144 1.88204 0.769965 1.60785Z" fill="white"/>
</svg>
